<?xml version="1.0" encoding="UTF-8"?>
<!DOCTYPE svg PUBLIC "-//W3C//DTD SVG 1.1//EN" "http://www.w3.org/Graphics/SVG/1.1/DTD/svg11.dtd">
<svg xmlns="http://www.w3.org/2000/svg" version="1.1" width="500px" height="500px" style="shape-rendering:geometricPrecision; text-rendering:geometricPrecision; image-rendering:optimizeQuality; fill-rule:evenodd; clip-rule:evenodd" xmlns:xlink="http://www.w3.org/1999/xlink">
<g><path style="opacity:0.004" fill="#000000" d="M 154.5,2.5 C 155.833,3.16667 155.833,3.16667 154.5,2.5 Z"/></g>
<g><path style="opacity:0.004" fill="#000000" d="M 309.5,5.5 C 310.833,6.16667 310.833,6.16667 309.5,5.5 Z"/></g>
<g><path style="opacity:0.004" fill="#000000" d="M 32.5,19.5 C 33.8333,20.1667 33.8333,20.1667 32.5,19.5 Z"/></g>
<g><path style="opacity:0.004" fill="#000000" d="M 65.5,25.5 C 66.8333,26.1667 66.8333,26.1667 65.5,25.5 Z"/></g>
<g><path style="opacity:0.004" fill="#000000" d="M 59.5,31.5 C 60.8333,32.1667 60.8333,32.1667 59.5,31.5 Z"/></g>
<g><path style="opacity:0.004" fill="#000000" d="M 307.5,36.5 C 308.833,37.1667 308.833,37.1667 307.5,36.5 Z"/></g>
<g><path style="opacity:0.004" fill="#000000" d="M 346.5,68.5 C 347.833,69.1667 347.833,69.1667 346.5,68.5 Z"/></g>
<g><path style="opacity:0.004" fill="#000000" d="M 24.5,71.5 C 25.8333,72.1667 25.8333,72.1667 24.5,71.5 Z"/></g>
<g><path style="opacity:0.004" fill="#000000" d="M 495.5,78.5 C 496.833,79.1667 496.833,79.1667 495.5,78.5 Z"/></g>
<g><path style="opacity:0.004" fill="#000000" d="M 410.5,85.5 C 411.833,86.1667 411.833,86.1667 410.5,85.5 Z"/></g>
<g><path style="opacity:0.333" fill="#474947" d="M 243.5,87.5 C 243.5,87.8333 243.5,88.1667 243.5,88.5C 240.167,88.5 236.833,88.5 233.5,88.5C 236.563,87.7986 239.73,87.132 243,86.5C 243.399,86.7284 243.565,87.0618 243.5,87.5 Z"/></g>
<g><path style="opacity:0.545" fill="#737473" d="M 260.5,87.5 C 260.5,87.8333 260.5,88.1667 260.5,88.5C 254.833,88.5 249.167,88.5 243.5,88.5C 243.5,88.1667 243.5,87.8333 243.5,87.5C 249.328,86.7756 254.994,86.7756 260.5,87.5 Z"/></g>
<g><path style="opacity:0.998" fill="#f2f2f2" d="M 233.5,88.5 C 236.833,88.5 240.167,88.5 243.5,88.5C 249.167,88.5 254.833,88.5 260.5,88.5C 263.786,89.2071 267.119,89.5405 270.5,89.5C 274.57,89.4318 278.237,90.4318 281.5,92.5C 284.95,94.2078 288.617,95.5412 292.5,96.5C 293.492,96.3284 294.158,96.6618 294.5,97.5C 295.514,98.6737 296.847,99.3404 298.5,99.5C 300.153,99.6596 301.486,100.326 302.5,101.5C 302.821,103.048 303.821,103.715 305.5,103.5C 306.492,103.328 307.158,103.662 307.5,104.5C 308.035,106.446 309.368,107.446 311.5,107.5C 311.833,108.5 312.5,109.167 313.5,109.5C 315.749,110.08 317.415,111.413 318.5,113.5C 319.262,115.262 320.596,116.262 322.5,116.5C 324.094,119.764 326.427,122.431 329.5,124.5C 330.08,126.749 331.413,128.415 333.5,129.5C 333.738,131.404 334.738,132.738 336.5,133.5C 336.427,135.027 337.094,136.027 338.5,136.5C 338.427,138.027 339.094,139.027 340.5,139.5C 343.008,143.182 345.008,147.182 346.5,151.5C 346.12,153.698 346.787,155.365 348.5,156.5C 348.528,159.916 349.528,162.916 351.5,165.5C 351.5,166.167 351.5,166.833 351.5,167.5C 351.565,170.428 352.232,173.095 353.5,175.5C 354.161,178.787 354.661,182.12 355,185.5C 355.822,228.541 355.656,271.541 354.5,314.5C 353.302,319.67 352.302,325.003 351.5,330.5C 351.5,330.833 351.5,331.167 351.5,331.5C 349.997,335.341 348.664,339.341 347.5,343.5C 346.243,349.344 343.909,354.677 340.5,359.5C 339.094,359.973 338.427,360.973 338.5,362.5C 338.573,364.027 337.906,365.027 336.5,365.5C 335.094,365.973 334.427,366.973 334.5,368.5C 334.5,369.167 334.167,369.5 333.5,369.5C 332.094,369.973 331.427,370.973 331.5,372.5C 330.833,373.833 329.833,374.833 328.5,375.5C 327.094,375.973 326.427,376.973 326.5,378.5C 321.821,383.178 316.821,387.511 311.5,391.5C 309.973,391.427 308.973,392.094 308.5,393.5C 306.973,393.427 305.973,394.094 305.5,395.5C 298.306,400.761 290.306,404.428 281.5,406.5C 278.848,406.41 276.515,407.076 274.5,408.5C 259.292,412.821 243.959,413.154 228.5,409.5C 222.367,407.124 216.034,405.124 209.5,403.5C 209.167,403.5 208.833,403.5 208.5,403.5C 207.817,401.824 206.483,401.157 204.5,401.5C 202.181,401.008 200.181,400.008 198.5,398.5C 198.027,397.094 197.027,396.427 195.5,396.5C 194.508,396.672 193.842,396.338 193.5,395.5C 193.027,394.094 192.027,393.427 190.5,393.5C 190.027,392.094 189.027,391.427 187.5,391.5C 186.5,391.167 185.833,390.5 185.5,389.5C 184.415,387.413 182.749,386.08 180.5,385.5C 179.415,383.413 177.749,382.08 175.5,381.5C 174.581,378.911 172.914,376.911 170.5,375.5C 168.833,374.5 167.5,373.167 166.5,371.5C 166.446,369.368 165.446,368.035 163.5,367.5C 162.662,367.158 162.328,366.492 162.5,365.5C 162.446,363.368 161.446,362.035 159.5,361.5C 157.659,359.151 156.326,356.485 155.5,353.5C 155.34,351.847 154.674,350.514 153.5,349.5C 152.069,348.22 151.402,346.553 151.5,344.5C 151.598,342.447 150.931,340.78 149.5,339.5C 149.741,337.102 149.074,335.102 147.5,333.5C 147.5,332.833 147.5,332.167 147.5,331.5C 146.507,325.875 145.84,320.208 145.5,314.5C 145.5,268.167 145.5,221.833 145.5,175.5C 146.657,172.727 147.324,169.727 147.5,166.5C 147.5,166.167 147.5,165.833 147.5,165.5C 149.868,163.044 150.868,160.044 150.5,156.5C 152.834,154.824 153.834,152.491 153.5,149.5C 153.5,149.167 153.5,148.833 153.5,148.5C 154.906,148.027 155.573,147.027 155.5,145.5C 155.992,143.181 156.992,141.181 158.5,139.5C 159.906,139.027 160.573,138.027 160.5,136.5C 161.906,136.027 162.573,135.027 162.5,133.5C 163.906,133.027 164.573,132.027 164.5,130.5C 166.914,129.089 168.581,127.089 169.5,124.5C 173.833,120.833 177.833,116.833 181.5,112.5C 184.089,111.581 186.089,109.914 187.5,107.5C 189.027,107.573 190.027,106.906 190.5,105.5C 192.027,105.573 193.027,104.906 193.5,103.5C 193.842,102.662 194.508,102.328 195.5,102.5C 197.848,102.408 199.514,101.408 200.5,99.5C 201.514,98.3263 202.847,97.6596 204.5,97.5C 208.165,97.4982 211.165,96.1648 213.5,93.5C 214.568,92.5655 215.901,92.2322 217.5,92.5C 221.479,92.2576 225.146,91.2576 228.5,89.5C 229.919,88.5489 231.585,88.2155 233.5,88.5 Z M 246.5,99.5 C 248.549,100.641 250.549,100.641 252.5,99.5C 256.98,100.521 261.647,101.187 266.5,101.5C 268.265,102.461 270.265,102.795 272.5,102.5C 276.828,104.567 281.328,106.567 286,108.5C 286.399,108.272 286.565,107.938 286.5,107.5C 286.833,107.5 287.167,107.5 287.5,107.5C 288.183,109.176 289.517,109.843 291.5,109.5C 291.842,110.338 292.508,110.672 293.5,110.5C 293.5,111.167 293.5,111.833 293.5,112.5C 289.919,112.113 286.253,112.113 282.5,112.5C 279.854,111.836 277.021,111.502 274,111.5C 269.558,111.326 265.391,111.993 261.5,113.5C 260.833,113.5 260.167,113.5 259.5,113.5C 253.246,113.542 247.58,115.208 242.5,118.5C 240.62,118.229 239.287,118.896 238.5,120.5C 236.181,120.992 234.181,121.992 232.5,123.5C 230.596,123.738 229.262,124.738 228.5,126.5C 226.973,126.427 225.973,127.094 225.5,128.5C 222.236,130.094 219.569,132.427 217.5,135.5C 214.757,137.239 212.757,139.573 211.5,142.5C 209.413,143.585 208.08,145.251 207.5,147.5C 206.662,147.842 206.328,148.508 206.5,149.5C 205.094,149.973 204.427,150.973 204.5,152.5C 203.094,152.973 202.427,153.973 202.5,155.5C 200.707,157.426 199.707,159.759 199.5,162.5C 197.188,166.783 195.855,171.45 195.5,176.5C 194.732,177.263 194.232,178.263 194,179.5C 193.333,225.5 193.333,271.5 194,317.5C 194.278,318.416 194.778,319.082 195.5,319.5C 195.389,320.117 195.056,320.617 194.5,321C 196.044,325.179 198.044,329.013 200.5,332.5C 200.66,334.153 201.326,335.486 202.5,336.5C 202.427,338.027 203.094,339.027 204.5,339.5C 204.833,340.5 205.5,341.167 206.5,341.5C 208.167,345.167 210.833,347.833 214.5,349.5C 214.973,350.906 215.973,351.573 217.5,351.5C 217.5,352.833 218.167,353.5 219.5,353.5C 220.514,354.674 221.847,355.34 223.5,355.5C 224.287,357.104 225.62,357.771 227.5,357.5C 228.93,358.537 230.597,359.204 232.5,359.5C 234.905,360.768 237.572,361.435 240.5,361.5C 240.833,361.5 241.167,361.5 241.5,361.5C 247.685,362.772 254.018,362.772 260.5,361.5C 262.721,361.439 263.054,362.105 261.5,363.5C 259.973,363.427 258.973,364.094 258.5,365.5C 257.508,365.328 256.842,365.662 256.5,366.5C 254.067,366.273 252.401,367.273 251.5,369.5C 251.167,369.5 250.833,369.5 250.5,369.5C 247.215,369.928 244.215,370.928 241.5,372.5C 236.32,372.847 231.32,373.513 226.5,374.5C 221.859,373.873 217.193,373.54 212.5,373.5C 210.095,372.232 207.428,371.565 204.5,371.5C 203.791,370.596 202.791,370.263 201.5,370.5C 199.574,368.707 197.241,367.707 194.5,367.5C 192.337,365.917 190.004,364.584 187.5,363.5C 186.564,362.026 185.23,361.026 183.5,360.5C 182.564,359.026 181.23,358.026 179.5,357.5C 178.5,355.833 177.167,354.5 175.5,353.5C 174.833,352.167 173.833,351.167 172.5,350.5C 172.262,348.596 171.262,347.262 169.5,346.5C 169.573,344.973 168.906,343.973 167.5,343.5C 167.573,341.973 166.906,340.973 165.5,340.5C 164.403,337.314 163.07,334.314 161.5,331.5C 160.669,328.341 159.669,325.341 158.5,322.5C 158.675,320.379 158.341,318.379 157.5,316.5C 156.58,275.395 156.247,234.061 156.5,192.5C 157.398,186.334 158.064,180 158.5,173.5C 159.434,172.432 159.768,171.099 159.5,169.5C 162.145,162.575 164.812,155.575 167.5,148.5C 168.906,148.027 169.573,147.027 169.5,145.5C 170.338,145.158 170.672,144.492 170.5,143.5C 171.906,143.027 172.573,142.027 172.5,140.5C 173.974,139.564 174.974,138.23 175.5,136.5C 177.262,135.738 178.262,134.404 178.5,132.5C 182.5,129.167 186.167,125.5 189.5,121.5C 191.404,121.262 192.738,120.262 193.5,118.5C 195.027,118.573 196.027,117.906 196.5,116.5C 198.537,115.154 200.537,113.82 202.5,112.5C 205.331,111.921 207.664,110.588 209.5,108.5C 214.172,106.832 218.838,105.165 223.5,103.5C 231.276,102.038 238.943,100.705 246.5,99.5 Z M 293.5,112.5 C 296.001,112.511 296.168,113.178 294,114.5C 293.536,113.906 293.369,113.239 293.5,112.5 Z M 273.5,124.5 C 277.768,125.373 282.102,125.706 286.5,125.5C 289.937,126.945 293.603,127.945 297.5,128.5C 299.181,130.008 301.181,131.008 303.5,131.5C 304.391,132.11 305.391,132.443 306.5,132.5C 306.973,133.906 307.973,134.573 309.5,134.5C 309.842,135.338 310.508,135.672 311.5,135.5C 311.973,136.906 312.973,137.573 314.5,137.5C 315.911,139.914 317.911,141.581 320.5,142.5C 321.833,144.5 323.5,146.167 325.5,147.5C 325.738,149.404 326.738,150.738 328.5,151.5C 329.026,153.23 330.026,154.564 331.5,155.5C 331.328,156.492 331.662,157.158 332.5,157.5C 332.932,158.71 333.599,159.71 334.5,160.5C 334.66,162.153 335.326,163.486 336.5,164.5C 336.402,166.553 337.069,168.22 338.5,169.5C 339.132,173.702 340.132,177.702 341.5,181.5C 342.816,226.496 342.816,271.496 341.5,316.5C 341.5,317.5 341.5,318.5 341.5,319.5C 340.216,323.985 339.216,328.651 338.5,333.5C 337.463,334.93 336.796,336.597 336.5,338.5C 336.5,338.833 336.5,339.167 336.5,339.5C 335.326,340.514 334.66,341.847 334.5,343.5C 333.227,345.713 332.227,348.046 331.5,350.5C 330.094,350.973 329.427,351.973 329.5,353.5C 328.662,353.842 328.328,354.508 328.5,355.5C 327.094,355.973 326.427,356.973 326.5,358.5C 325.094,358.973 324.427,359.973 324.5,361.5C 322.738,362.262 321.738,363.596 321.5,365.5C 320.5,365.833 319.833,366.5 319.5,367.5C 315.833,370.5 312.5,373.833 309.5,377.5C 307.596,377.738 306.262,378.738 305.5,380.5C 303.596,380.738 302.262,381.738 301.5,383.5C 300.508,383.328 299.842,383.662 299.5,384.5C 297.973,384.427 296.973,385.094 296.5,386.5C 294.973,386.427 293.973,387.094 293.5,388.5C 290.759,388.707 288.426,389.707 286.5,391.5C 284.597,391.796 282.93,392.463 281.5,393.5C 278.215,393.928 275.215,394.928 272.5,396.5C 268.64,396.808 264.974,397.475 261.5,398.5C 252.833,398.5 244.167,398.5 235.5,398.5C 230.354,396.88 225.02,395.547 219.5,394.5C 216.66,392.085 213.327,390.752 209.5,390.5C 209.158,389.662 208.492,389.328 207.5,389.5C 207.027,388.094 206.027,387.427 204.5,387.5C 203.5,387.167 202.833,386.5 202.5,385.5C 203.391,384.89 204.391,384.557 205.5,384.5C 207.444,385.828 209.444,386.161 211.5,385.5C 214.886,386.97 218.553,387.637 222.5,387.5C 228.366,387.283 234.033,386.616 239.5,385.5C 244.6,385.289 249.266,383.955 253.5,381.5C 255.553,381.598 257.22,380.931 258.5,379.5C 260.153,379.34 261.486,378.674 262.5,377.5C 264.674,377.25 266.341,376.25 267.5,374.5C 268.71,374.068 269.71,373.401 270.5,372.5C 272.027,372.573 273.027,371.906 273.5,370.5C 274.5,370.167 275.167,369.5 275.5,368.5C 277.404,368.262 278.738,367.262 279.5,365.5C 280.167,365.5 280.5,365.167 280.5,364.5C 282.5,363.167 284.167,361.5 285.5,359.5C 286.906,359.027 287.573,358.027 287.5,356.5C 288.167,356.5 288.5,356.167 288.5,355.5C 290.262,354.738 291.262,353.404 291.5,351.5C 293.924,348.992 295.59,345.992 296.5,342.5C 298.104,341.713 298.771,340.38 298.5,338.5C 300.601,335.203 301.935,331.537 302.5,327.5C 303.785,324.411 304.451,321.078 304.5,317.5C 305.665,272.669 305.831,227.669 305,182.5C 304.249,177.789 302.749,173.456 300.5,169.5C 300.573,167.973 299.906,166.973 298.5,166.5C 298.34,164.847 297.674,163.514 296.5,162.5C 295.92,160.251 294.587,158.585 292.5,157.5C 290.833,153.833 288.167,151.167 284.5,149.5C 284.5,148.833 284.167,148.5 283.5,148.5C 282.564,147.026 281.23,146.026 279.5,145.5C 277.151,143.659 274.485,142.326 271.5,141.5C 267.544,139.251 263.211,137.751 258.5,137C 253.78,136.779 249.113,136.279 244.5,135.5C 242.974,135.994 241.641,136.661 240.5,137.5C 239.833,137.5 239.167,137.5 238.5,137.5C 238.389,136.883 238.056,136.383 237.5,136C 238.942,135.623 239.942,134.79 240.5,133.5C 241.167,133.5 241.5,133.167 241.5,132.5C 248.573,130.317 255.573,127.984 262.5,125.5C 263.117,125.611 263.617,125.944 264,126.5C 267.27,125.868 270.437,125.201 273.5,124.5 Z M 258.5,150.5 C 258.833,150.5 259.167,150.5 259.5,150.5C 261.214,151.738 263.214,152.405 265.5,152.5C 267.849,154.341 270.515,155.674 273.5,156.5C 273.973,157.906 274.973,158.573 276.5,158.5C 276.5,159.833 277.167,160.5 278.5,160.5C 279.167,161.833 280.167,162.833 281.5,163.5C 281.856,165.19 282.856,166.19 284.5,166.5C 284.5,166.833 284.5,167.167 284.5,167.5C 285.026,169.23 286.026,170.564 287.5,171.5C 287.66,173.153 288.326,174.486 289.5,175.5C 290.949,181.245 291.949,187.078 292.5,193C 291.192,232.562 291.192,272.062 292.5,311.5C 292.5,311.833 292.5,312.167 292.5,312.5C 291.21,315.642 290.21,318.975 289.5,322.5C 288.559,324.05 287.893,325.716 287.5,327.5C 286.094,327.973 285.427,328.973 285.5,330.5C 284.094,330.973 283.427,331.973 283.5,333.5C 280.833,335.5 278.5,337.833 276.5,340.5C 274.973,340.427 273.973,341.094 273.5,342.5C 272.508,342.328 271.842,342.662 271.5,343.5C 269.847,343.66 268.514,344.326 267.5,345.5C 262.823,347.166 258.156,348.499 253.5,349.5C 247.448,349.269 241.448,348.602 235.5,347.5C 233.351,346.264 231.018,345.264 228.5,344.5C 228.027,343.094 227.027,342.427 225.5,342.5C 225.027,341.094 224.027,340.427 222.5,340.5C 222.167,339.5 221.5,338.833 220.5,338.5C 219.5,336.833 218.167,335.5 216.5,334.5C 216.262,332.596 215.262,331.262 213.5,330.5C 213.672,329.508 213.338,328.842 212.5,328.5C 212.573,326.973 211.906,325.973 210.5,325.5C 210.737,324.209 210.404,323.209 209.5,322.5C 208.79,318.975 207.79,315.642 206.5,312.5C 206.5,312.167 206.5,311.833 206.5,311.5C 206.333,272.832 206.5,234.165 207,195.5C 207.199,188.732 208.032,182.066 209.5,175.5C 211.071,173.365 212.404,171.032 213.5,168.5C 214.906,168.027 215.573,167.027 215.5,165.5C 218.167,163.5 220.5,161.167 222.5,158.5C 224.027,158.573 225.027,157.906 225.5,156.5C 229.935,153.949 234.601,151.949 239.5,150.5C 245.839,149.232 252.172,149.232 258.5,150.5 Z M 201.5,383.5 C 201.833,383.5 202.167,383.5 202.5,383.5C 202.5,384.167 202.5,384.833 202.5,385.5C 201.833,385.5 201.167,385.5 200.5,385.5C 200.833,384.833 201.167,384.167 201.5,383.5 Z"/></g>
<g><path style="opacity:0.184" fill="#3f3f3f" d="M 260.5,88.5 C 260.5,88.1667 260.5,87.8333 260.5,87.5C 264.078,87.5488 267.411,88.2154 270.5,89.5C 267.119,89.5405 263.786,89.2071 260.5,88.5 Z"/></g>
<g><path style="opacity:0.608" fill="#6a6b6c" d="M 228.5,89.5 C 225.146,91.2576 221.479,92.2576 217.5,92.5C 220.799,90.5165 224.466,89.5165 228.5,89.5 Z"/></g>
<g><path style="opacity:0.09" fill="#303434" d="M 281.5,92.5 C 285.673,92.6667 289.34,94 292.5,96.5C 288.617,95.5412 284.95,94.2078 281.5,92.5 Z"/></g>
<g><path style="opacity:0.004" fill="#000000" d="M 400.5,94.5 C 401.833,95.1667 401.833,95.1667 400.5,94.5 Z"/></g>
<g><path style="opacity:0.769" fill="#828183" d="M 213.5,93.5 C 211.165,96.1648 208.165,97.4982 204.5,97.5C 207.088,95.3754 210.088,94.0421 213.5,93.5 Z"/></g>
<g><path style="opacity:0.102" fill="#2c3030" d="M 294.5,97.5 C 296.38,97.2291 297.713,97.8958 298.5,99.5C 296.847,99.3404 295.514,98.6737 294.5,97.5 Z"/></g>
<g><path style="opacity:0.09" fill="#2d2d2d" d="M 252.5,99.5 C 256.182,99.3347 259.848,99.5014 263.5,100C 264.737,100.232 265.737,100.732 266.5,101.5C 261.647,101.187 256.98,100.521 252.5,99.5 Z"/></g>
<g><path style="opacity:0.004" fill="#000000" d="M 317.5,100.5 C 318.833,101.167 318.833,101.167 317.5,100.5 Z"/></g>
<g><path style="opacity:0.463" fill="#767678" d="M 200.5,99.5 C 199.514,101.408 197.848,102.408 195.5,102.5C 196.659,100.75 198.326,99.7497 200.5,99.5 Z"/></g>
<g><path style="opacity:0.067" fill="#333336" d="M 246.5,99.5 C 238.943,100.705 231.276,102.038 223.5,103.5C 225.148,102.073 227.148,101.24 229.5,101C 235.112,99.8686 240.779,99.3686 246.5,99.5 Z"/></g>
<g><path style="opacity:0.788" fill="#7a7a7d" d="M 302.5,101.5 C 303.71,101.932 304.71,102.599 305.5,103.5C 303.821,103.715 302.821,103.048 302.5,101.5 Z"/></g>
<g><path style="opacity:0.4" fill="#505050" d="M 193.5,103.5 C 193.027,104.906 192.027,105.573 190.5,105.5C 190.973,104.094 191.973,103.427 193.5,103.5 Z"/></g>
<g><path style="opacity:0.682" fill="#575859" d="M 307.5,104.5 C 309.23,105.026 310.564,106.026 311.5,107.5C 309.368,107.446 308.035,106.446 307.5,104.5 Z"/></g>
<g><path style="opacity:0.384" fill="#454545" d="M 190.5,105.5 C 190.027,106.906 189.027,107.573 187.5,107.5C 187.973,106.094 188.973,105.427 190.5,105.5 Z"/></g>
<g><path style="opacity:0.012" fill="#1c1c1c" d="M 272.5,102.5 C 274.199,102.34 275.866,102.506 277.5,103C 280.613,104.417 283.613,105.917 286.5,107.5C 286.565,107.938 286.399,108.272 286,108.5C 281.328,106.567 276.828,104.567 272.5,102.5 Z"/></g>
<g><path style="opacity:0.012" fill="#272628" d="M 311.5,107.5 C 312.833,107.5 313.5,108.167 313.5,109.5C 312.5,109.167 311.833,108.5 311.5,107.5 Z"/></g>
<g><path style="opacity:0.012" fill="#191b1b" d="M 287.5,107.5 C 288.995,107.989 290.329,108.655 291.5,109.5C 289.517,109.843 288.183,109.176 287.5,107.5 Z"/></g>
<g><path style="opacity:0.082" fill="#2d2d2d" d="M 209.5,108.5 C 207.664,110.588 205.331,111.921 202.5,112.5C 204.336,110.412 206.669,109.079 209.5,108.5 Z"/></g>
<g><path style="opacity:0.525" fill="#616162" d="M 187.5,107.5 C 186.089,109.914 184.089,111.581 181.5,112.5C 182.911,110.086 184.911,108.419 187.5,107.5 Z"/></g>
<g><path style="opacity:0.004" fill="#000000" d="M 485.5,111.5 C 486.833,112.167 486.833,112.167 485.5,111.5 Z"/></g>
<g><path style="opacity:0.737" fill="#7c7c7c" d="M 282.5,112.5 C 282.5,112.833 282.5,113.167 282.5,113.5C 275.5,113.5 268.5,113.5 261.5,113.5C 265.391,111.993 269.558,111.326 274,111.5C 277.021,111.502 279.854,111.836 282.5,112.5 Z"/></g>
<g><path style="opacity:0.016" fill="#252525" d="M 293.5,110.5 C 296.511,111.669 299.178,113.336 301.5,115.5C 300.833,115.5 300.5,115.833 300.5,116.5C 298.901,116.768 297.568,116.434 296.5,115.5C 291.938,114.204 287.271,113.538 282.5,113.5C 282.5,113.167 282.5,112.833 282.5,112.5C 286.253,112.113 289.919,112.113 293.5,112.5C 293.5,111.833 293.5,111.167 293.5,110.5 Z M 293.5,112.5 C 293.369,113.239 293.536,113.906 294,114.5C 296.168,113.178 296.001,112.511 293.5,112.5 Z"/></g>
<g><path style="opacity:0.016" fill="#323232" d="M 318.5,113.5 C 320.404,113.738 321.738,114.738 322.5,116.5C 320.596,116.262 319.262,115.262 318.5,113.5 Z"/></g>
<g><path style="opacity:0.114" fill="#3e3e3e" d="M 301.5,115.5 C 302.492,115.328 303.158,115.662 303.5,116.5C 302.833,116.5 302.5,116.833 302.5,117.5C 301.508,117.672 300.842,117.338 300.5,116.5C 301.167,116.5 301.5,116.167 301.5,115.5 Z"/></g>
<g><path style="opacity:0.008" fill="#1c1f1f" d="M 196.5,116.5 C 196.027,117.906 195.027,118.573 193.5,118.5C 193.973,117.094 194.973,116.427 196.5,116.5 Z"/></g>
<g><path style="opacity:0.651" fill="#555556" d="M 259.5,113.5 C 253.837,115.036 248.17,116.703 242.5,118.5C 247.58,115.208 253.246,113.542 259.5,113.5 Z"/></g>
<g><path style="opacity:0.408" fill="#474849" d="M 322.5,116.5 C 325.573,118.569 327.906,121.236 329.5,124.5C 326.427,122.431 324.094,119.764 322.5,116.5 Z"/></g>
<g><path style="opacity:0.931" fill="#7c7d7d" d="M 193.5,118.5 C 192.738,120.262 191.404,121.262 189.5,121.5C 190.953,120.175 190.619,119.342 188.5,119C 190.134,118.506 191.801,118.34 193.5,118.5 Z"/></g>
<g><path style="opacity:0.424" fill="#5d5d5d" d="M 303.5,116.5 C 307.768,118.315 308.101,118.982 304.5,118.5C 303.702,118.043 303.369,117.376 303.5,116.5 Z"/></g>
<g><path style="opacity:0.212" fill="#2f2f2f" d="M 242.5,118.5 C 241.486,119.674 240.153,120.34 238.5,120.5C 239.287,118.896 240.62,118.229 242.5,118.5 Z"/></g>
<g><path style="opacity:0.004" fill="#000000" d="M 356.5,121.5 C 357.833,122.167 357.833,122.167 356.5,121.5 Z"/></g>
<g><path style="opacity:0.239" fill="#4c4c4e" d="M 181.5,112.5 C 177.833,116.833 173.833,120.833 169.5,124.5C 172.5,119.5 176.5,115.5 181.5,112.5 Z"/></g>
<g><path style="opacity:0.208" fill="#3b3b3b" d="M 232.5,123.5 C 231.738,125.262 230.404,126.262 228.5,126.5C 229.262,124.738 230.596,123.738 232.5,123.5 Z"/></g>
<g><path style="opacity:0.016" fill="#121212" d="M 262.5,125.5 C 265.962,124.518 269.629,124.185 273.5,124.5C 270.437,125.201 267.27,125.868 264,126.5C 263.617,125.944 263.117,125.611 262.5,125.5 Z"/></g>
<g><path style="opacity:0.463" fill="#4b4b4c" d="M 286.5,125.5 C 290.57,125.432 294.237,126.432 297.5,128.5C 293.603,127.945 289.937,126.945 286.5,125.5 Z"/></g>
<g><path style="opacity:0.663" fill="#696969" d="M 329.5,124.5 C 331.587,125.585 332.92,127.251 333.5,129.5C 331.413,128.415 330.08,126.749 329.5,124.5 Z"/></g>
<g><path style="opacity:0.369" fill="#565656" d="M 169.5,124.5 C 168.581,127.089 166.914,129.089 164.5,130.5C 165.419,127.911 167.086,125.911 169.5,124.5 Z"/></g>
<g><path style="opacity:0.361" fill="#4c4c4c" d="M 228.5,126.5 C 228.027,127.906 227.027,128.573 225.5,128.5C 225.973,127.094 226.973,126.427 228.5,126.5 Z"/></g>
<g><path style="opacity:0.006" fill="#1f1f1f" d="M 262.5,125.5 C 255.573,127.984 248.573,130.317 241.5,132.5C 247.83,128.39 254.83,126.057 262.5,125.5 Z"/></g>
<g><path style="opacity:0.059" fill="#404142" d="M 297.5,128.5 C 300.313,128.025 302.313,129.025 303.5,131.5C 301.181,131.008 299.181,130.008 297.5,128.5 Z"/></g>
<g><path style="opacity:0.004" fill="#000000" d="M 126.5,131.5 C 127.833,132.167 127.833,132.167 126.5,131.5 Z"/></g>
<g><path style="opacity:0.424" fill="#525554" d="M 225.5,128.5 C 223.431,131.573 220.764,133.906 217.5,135.5C 219.569,132.427 222.236,130.094 225.5,128.5 Z"/></g>
<g><path style="opacity:0.365" fill="#5f5f60" d="M 333.5,129.5 C 335.262,130.262 336.262,131.596 336.5,133.5C 334.738,132.738 333.738,131.404 333.5,129.5 Z"/></g>
<g><path style="opacity:0.133" fill="#444444" d="M 164.5,130.5 C 164.573,132.027 163.906,133.027 162.5,133.5C 162.427,131.973 163.094,130.973 164.5,130.5 Z"/></g>
<g><path style="opacity:0.008" fill="#252727" d="M 178.5,132.5 C 178.262,134.404 177.262,135.738 175.5,136.5C 175.738,134.596 176.738,133.262 178.5,132.5 Z"/></g>
<g><path style="opacity:0.071" fill="#292a2a" d="M 306.5,132.5 C 308.027,132.427 309.027,133.094 309.5,134.5C 307.973,134.573 306.973,133.906 306.5,132.5 Z"/></g>
<g><path style="opacity:0.157" fill="#444746" d="M 162.5,133.5 C 162.573,135.027 161.906,136.027 160.5,136.5C 160.427,134.973 161.094,133.973 162.5,133.5 Z"/></g>
<g><path style="opacity:0.018" fill="#1b1b1b" d="M 240.5,133.5 C 239.942,134.79 238.942,135.623 237.5,136C 238.056,136.383 238.389,136.883 238.5,137.5C 236.061,139.035 233.394,139.868 230.5,140C 231.373,138.955 232.373,138.122 233.5,137.5C 235.336,135.412 237.669,134.079 240.5,133.5 Z"/></g>
<g><path style="opacity:0.173" fill="#444448" d="M 336.5,133.5 C 337.906,133.973 338.573,134.973 338.5,136.5C 337.094,136.027 336.427,135.027 336.5,133.5 Z"/></g>
<g><path style="opacity:0.2" fill="#414142" d="M 311.5,135.5 C 313.027,135.427 314.027,136.094 314.5,137.5C 312.973,137.573 311.973,136.906 311.5,135.5 Z"/></g>
<g><path style="opacity:0.094" fill="#2f2f2f" d="M 271.5,141.5 C 261.462,138.065 251.129,136.731 240.5,137.5C 241.641,136.661 242.974,135.994 244.5,135.5C 249.113,136.279 253.78,136.779 258.5,137C 263.211,137.751 267.544,139.251 271.5,141.5 Z"/></g>
<g><path style="opacity:0.004" fill="#000000" d="M 496.5,137.5 C 497.833,138.167 497.833,138.167 496.5,137.5 Z"/></g>
<g><path style="opacity:0.078" fill="#343c3c" d="M 160.5,136.5 C 160.573,138.027 159.906,139.027 158.5,139.5C 158.427,137.973 159.094,136.973 160.5,136.5 Z"/></g>
<g><path style="opacity:0.51" fill="#5f6161" d="M 217.5,135.5 C 216.243,138.427 214.243,140.761 211.5,142.5C 212.757,139.573 214.757,137.239 217.5,135.5 Z"/></g>
<g><path style="opacity:0.11" fill="#3a3a3a" d="M 338.5,136.5 C 339.906,136.973 340.573,137.973 340.5,139.5C 339.094,139.027 338.427,138.027 338.5,136.5 Z"/></g>
<g><path style="opacity:0.243" fill="#3b3b3b" d="M 314.5,137.5 C 317.089,138.419 319.089,140.086 320.5,142.5C 317.911,141.581 315.911,139.914 314.5,137.5 Z"/></g>
<g><path style="opacity:0.004" fill="#000000" d="M 98.5,141.5 C 99.8333,142.167 99.8333,142.167 98.5,141.5 Z"/></g>
<g><path style="opacity:0.075" fill="#353535" d="M 172.5,140.5 C 172.573,142.027 171.906,143.027 170.5,143.5C 170.427,141.973 171.094,140.973 172.5,140.5 Z"/></g>
<g><path style="opacity:0.086" fill="#424242" d="M 211.5,142.5 C 210.92,144.749 209.587,146.415 207.5,147.5C 208.08,145.251 209.413,143.585 211.5,142.5 Z"/></g>
<g><path style="opacity:0.678" fill="#5c5c5c" d="M 279.5,145.5 C 281.23,146.026 282.564,147.026 283.5,148.5C 281.368,148.446 280.035,147.446 279.5,145.5 Z"/></g>
<g><path style="opacity:0.067" fill="#282828" d="M 155.5,145.5 C 155.573,147.027 154.906,148.027 153.5,148.5C 153.427,146.973 154.094,145.973 155.5,145.5 Z"/></g>
<g><path style="opacity:0.067" fill="#2f2f2f" d="M 169.5,145.5 C 169.573,147.027 168.906,148.027 167.5,148.5C 167.427,146.973 168.094,145.973 169.5,145.5 Z"/></g>
<g><path style="opacity:0.208" fill="#555756" d="M 258.5,150.5 C 252.172,149.232 245.839,149.232 239.5,150.5C 239.918,149.778 240.584,149.278 241.5,149C 243.833,148.833 246.167,148.667 248.5,148.5C 252.141,148.315 255.474,148.981 258.5,150.5 Z"/></g>
<g><path style="opacity:0.016" fill="#282a2c" d="M 325.5,147.5 C 327.262,148.262 328.262,149.596 328.5,151.5C 326.738,150.738 325.738,149.404 325.5,147.5 Z"/></g>
<g><path style="opacity:0.004" fill="#000000" d="M 436.5,148.5 C 437.833,149.167 437.833,149.167 436.5,148.5 Z"/></g>
<g><path style="opacity:0.02" fill="#383939" d="M 284.5,149.5 C 288.167,151.167 290.833,153.833 292.5,157.5C 289.5,155.167 286.833,152.5 284.5,149.5 Z"/></g>
<g><path style="opacity:0.325" fill="#343535" d="M 259.5,150.5 C 261.898,150.259 263.898,150.926 265.5,152.5C 263.214,152.405 261.214,151.738 259.5,150.5 Z"/></g>
<g><path style="opacity:0.004" fill="#000000" d="M 391.5,150.5 C 392.833,151.167 392.833,151.167 391.5,150.5 Z"/></g>
<g><path style="opacity:0.082" fill="#2d2d2d" d="M 167.5,148.5 C 164.812,155.575 162.145,162.575 159.5,169.5C 160.606,161.84 163.273,154.84 167.5,148.5 Z"/></g>
<g><path style="opacity:0.18" fill="#4b4e52" d="M 206.5,149.5 C 206.573,151.027 205.906,152.027 204.5,152.5C 204.427,150.973 205.094,149.973 206.5,149.5 Z"/></g>
<g><path style="opacity:0.714" fill="#5c5e5c" d="M 328.5,151.5 C 330.446,152.035 331.446,153.368 331.5,155.5C 330.026,154.564 329.026,153.23 328.5,151.5 Z"/></g>
<g><path style="opacity:0.839" fill="#7a7b7a" d="M 153.5,149.5 C 153.834,152.491 152.834,154.824 150.5,156.5C 150.935,153.843 151.935,151.509 153.5,149.5 Z"/></g>
<g><path style="opacity:0.067" fill="#282828" d="M 204.5,152.5 C 204.573,154.027 203.906,155.027 202.5,155.5C 202.427,153.973 203.094,152.973 204.5,152.5 Z"/></g>
<g><path style="opacity:0.702" fill="#686c6f" d="M 346.5,151.5 C 347.537,152.93 348.204,154.597 348.5,156.5C 346.787,155.365 346.12,153.698 346.5,151.5 Z"/></g>
<g><path style="opacity:0.443" fill="#4d4d4d" d="M 273.5,156.5 C 275.027,156.427 276.027,157.094 276.5,158.5C 274.973,158.573 273.973,157.906 273.5,156.5 Z"/></g>
<g><path style="opacity:0.012" fill="#232323" d="M 225.5,156.5 C 225.027,157.906 224.027,158.573 222.5,158.5C 222.973,157.094 223.973,156.427 225.5,156.5 Z"/></g>
<g><path style="opacity:0.678" fill="#6e706f" d="M 332.5,157.5 C 334.048,157.821 334.715,158.821 334.5,160.5C 333.599,159.71 332.932,158.71 332.5,157.5 Z"/></g>
<g><path style="opacity:0.008" fill="#1a1a1a" d="M 276.5,158.5 C 277.5,158.833 278.167,159.5 278.5,160.5C 277.167,160.5 276.5,159.833 276.5,158.5 Z"/></g>
<g><path style="opacity:0.467" fill="#484949" d="M 348.5,156.5 C 350.072,159.215 351.072,162.215 351.5,165.5C 349.528,162.916 348.528,159.916 348.5,156.5 Z"/></g>
<g><path style="opacity:0.631" fill="#555556" d="M 202.5,155.5 C 202.834,158.491 201.834,160.824 199.5,162.5C 199.707,159.759 200.707,157.426 202.5,155.5 Z"/></g>
<g><path style="opacity:0.553" fill="#575757" d="M 278.5,160.5 C 280.5,160.5 281.5,161.5 281.5,163.5C 280.167,162.833 279.167,161.833 278.5,160.5 Z"/></g>
<g><path style="opacity:0.098" fill="#3c3c3d" d="M 292.5,157.5 C 294.587,158.585 295.92,160.251 296.5,162.5C 294.413,161.415 293.08,159.749 292.5,157.5 Z"/></g>
<g><path style="opacity:0.537" fill="#5a5b5e" d="M 150.5,156.5 C 150.868,160.044 149.868,163.044 147.5,165.5C 147.928,162.215 148.928,159.215 150.5,156.5 Z"/></g>
<g><path style="opacity:0.631" fill="#555557" d="M 199.5,162.5 C 198.741,167.43 197.408,172.097 195.5,176.5C 195.855,171.45 197.188,166.783 199.5,162.5 Z"/></g>
<g><path style="opacity:0.016" fill="#3e3f3f" d="M 281.5,163.5 C 283.144,163.81 284.144,164.81 284.5,166.5C 282.856,166.19 281.856,165.19 281.5,163.5 Z"/></g>
<g><path style="opacity:0.004" fill="#242525" d="M 215.5,165.5 C 215.573,167.027 214.906,168.027 213.5,168.5C 213.427,166.973 214.094,165.973 215.5,165.5 Z"/></g>
<g><path style="opacity:0.6" fill="#505151" d="M 284.5,167.5 C 286.446,168.035 287.446,169.368 287.5,171.5C 286.026,170.564 285.026,169.23 284.5,167.5 Z"/></g>
<g><path style="opacity:0.145" fill="#383838" d="M 336.5,164.5 C 337.931,165.78 338.598,167.447 338.5,169.5C 337.069,168.22 336.402,166.553 336.5,164.5 Z"/></g>
<g><path style="opacity:0.086" fill="#323232" d="M 298.5,166.5 C 299.906,166.973 300.573,167.973 300.5,169.5C 299.094,169.027 298.427,168.027 298.5,166.5 Z"/></g>
<g><path style="opacity:0.337" fill="#383839" d="M 147.5,166.5 C 147.324,169.727 146.657,172.727 145.5,175.5C 145.215,172.171 145.882,169.171 147.5,166.5 Z"/></g>
<g><path style="opacity:0.008" fill="#252828" d="M 338.5,169.5 C 340.692,173.098 341.692,177.098 341.5,181.5C 340.132,177.702 339.132,173.702 338.5,169.5 Z"/></g>
<g><path style="opacity:0.165" fill="#464646" d="M 351.5,167.5 C 353.04,169.838 353.706,172.505 353.5,175.5C 352.232,173.095 351.565,170.428 351.5,167.5 Z"/></g>
<g><path style="opacity:0.153" fill="#353736" d="M 158.5,173.5 C 158.064,180 157.398,186.334 156.5,192.5C 156.5,189.5 156.5,186.5 156.5,183.5C 156.322,179.878 156.989,176.544 158.5,173.5 Z"/></g>
<g><path style="opacity:0.004" fill="#000000" d="M 409.5,183.5 C 410.833,184.167 410.833,184.167 409.5,183.5 Z"/></g>
<g><path style="opacity:0.739" fill="#858685" d="M 145.5,175.5 C 145.5,221.833 145.5,268.167 145.5,314.5C 145.167,314.5 144.833,314.5 144.5,314.5C 143.344,271.541 143.178,228.541 144,185.5C 144.179,181.975 144.679,178.641 145.5,175.5 Z"/></g>
<g><path style="opacity:0.368" fill="#818181" d="M 341.5,181.5 C 342.268,182.263 342.768,183.263 343,184.5C 343.667,227.5 343.667,270.5 343,313.5C 342.768,314.737 342.268,315.737 341.5,316.5C 342.816,271.496 342.816,226.496 341.5,181.5 Z"/></g>
<g><path style="opacity:0.004" fill="#000000" d="M 433.5,191.5 C 434.833,192.167 434.833,192.167 433.5,191.5 Z"/></g>
<g><path style="opacity:0.363" fill="#797a7a" d="M 156.5,183.5 C 156.5,186.5 156.5,189.5 156.5,192.5C 156.247,234.061 156.58,275.395 157.5,316.5C 156.698,315.048 156.198,313.382 156,311.5C 155.169,268.665 155.335,225.998 156.5,183.5 Z"/></g>
<g><path style="opacity:0.004" fill="#000000" d="M 493.5,195.5 C 494.833,196.167 494.833,196.167 493.5,195.5 Z"/></g>
<g><path style="opacity:0.166" fill="#2e302f" d="M 289.5,175.5 C 291.262,178.503 292.428,181.837 293,185.5C 293.831,227.669 293.665,269.669 292.5,311.5C 291.192,272.062 291.192,232.562 292.5,193C 291.949,187.078 290.949,181.245 289.5,175.5 Z"/></g>
<g><path style="opacity:0.004" fill="#000000" d="M 424.5,207.5 C 425.833,208.167 425.833,208.167 424.5,207.5 Z"/></g>
<g><path style="opacity:0.004" fill="#000000" d="M 131.5,211.5 C 132.833,212.167 132.833,212.167 131.5,211.5 Z"/></g>
<g><path style="opacity:0.09" fill="#2e2e30" d="M 209.5,175.5 C 208.032,182.066 207.199,188.732 207,195.5C 206.5,234.165 206.333,272.832 206.5,311.5C 205.335,269.669 205.169,227.669 206,185.5C 206.302,181.755 207.469,178.422 209.5,175.5 Z"/></g>
<g><path style="opacity:0.004" fill="#000000" d="M 116.5,243.5 C 117.833,244.167 117.833,244.167 116.5,243.5 Z"/></g>
<g><path style="opacity:0.18" fill="#4c4c4d" d="M 195.5,176.5 C 194.172,224.171 194.172,271.837 195.5,319.5C 194.778,319.082 194.278,318.416 194,317.5C 193.333,271.5 193.333,225.5 194,179.5C 194.232,178.263 194.732,177.263 195.5,176.5 Z"/></g>
<g><path style="opacity:0.004" fill="#000000" d="M 471.5,254.5 C 472.833,255.167 472.833,255.167 471.5,254.5 Z"/></g>
<g><path style="opacity:0.175" fill="#4c4c4c" d="M 300.5,169.5 C 302.749,173.456 304.249,177.789 305,182.5C 305.831,227.669 305.665,272.669 304.5,317.5C 304.667,272.832 304.5,228.165 304,183.5C 302.824,178.797 301.658,174.13 300.5,169.5 Z"/></g>
<g><path style="opacity:0.004" fill="#000000" d="M 106.5,271.5 C 107.833,272.167 107.833,272.167 106.5,271.5 Z"/></g>
<g><path style="opacity:0.004" fill="#000000" d="M 449.5,285.5 C 450.833,286.167 450.833,286.167 449.5,285.5 Z"/></g>
<g><path style="opacity:0.004" fill="#000000" d="M 372.5,289.5 C 373.833,290.167 373.833,290.167 372.5,289.5 Z"/></g>
<g><path style="opacity:0.004" fill="#000000" d="M 100.5,299.5 C 101.833,300.167 101.833,300.167 100.5,299.5 Z"/></g>
<g><path style="opacity:0.518" fill="#464647" d="M 206.5,312.5 C 207.79,315.642 208.79,318.975 209.5,322.5C 207.025,319.749 206.025,316.416 206.5,312.5 Z"/></g>
<g><path style="opacity:0.561" fill="#494a4a" d="M 292.5,312.5 C 292.975,316.416 291.975,319.749 289.5,322.5C 290.21,318.975 291.21,315.642 292.5,312.5 Z"/></g>
<g><path style="opacity:0.022" fill="#2e2f30" d="M 195.5,319.5 C 197.338,323.668 199.005,328.002 200.5,332.5C 198.044,329.013 196.044,325.179 194.5,321C 195.056,320.617 195.389,320.117 195.5,319.5 Z"/></g>
<g><path style="opacity:0.094" fill="#474949" d="M 354.5,314.5 C 354.773,320.216 353.773,325.549 351.5,330.5C 352.302,325.003 353.302,319.67 354.5,314.5 Z"/></g>
<g><path style="opacity:0.004" fill="#000000" d="M 485.5,325.5 C 486.833,326.167 486.833,326.167 485.5,325.5 Z"/></g>
<g><path style="opacity:0.525" fill="#575859" d="M 158.5,322.5 C 159.669,325.341 160.669,328.341 161.5,331.5C 159.138,329.081 158.138,326.081 158.5,322.5 Z"/></g>
<g><path style="opacity:0.059" fill="#1c1c1c" d="M 210.5,325.5 C 211.906,325.973 212.573,326.973 212.5,328.5C 211.094,328.027 210.427,327.027 210.5,325.5 Z"/></g>
<g><path style="opacity:0.282" fill="#464747" d="M 144.5,314.5 C 144.833,314.5 145.167,314.5 145.5,314.5C 145.84,320.208 146.507,325.875 147.5,331.5C 145.333,326.17 144.333,320.503 144.5,314.5 Z"/></g>
<g><path style="opacity:0.141" fill="#39393b" d="M 287.5,327.5 C 287.573,329.027 286.906,330.027 285.5,330.5C 285.427,328.973 286.094,327.973 287.5,327.5 Z"/></g>
<g><path style="opacity:0.533" fill="#525252" d="M 341.5,319.5 C 341.956,324.596 340.956,329.262 338.5,333.5C 339.216,328.651 340.216,323.985 341.5,319.5 Z"/></g>
<g><path style="opacity:0.224" fill="#4e4e4f" d="M 302.5,327.5 C 301.935,331.537 300.601,335.203 298.5,338.5C 299.065,334.463 300.399,330.797 302.5,327.5 Z"/></g>
<g><path style="opacity:0.404" fill="#3d3d3e" d="M 213.5,330.5 C 215.262,331.262 216.262,332.596 216.5,334.5C 214.738,333.738 213.738,332.404 213.5,330.5 Z"/></g>
<g><path style="opacity:0.353" fill="#3e3e3e" d="M 285.5,330.5 C 285.573,332.027 284.906,333.027 283.5,333.5C 283.427,331.973 284.094,330.973 285.5,330.5 Z"/></g>
<g><path style="opacity:0.067" fill="#3f3f40" d="M 351.5,331.5 C 351.53,336.079 350.196,340.079 347.5,343.5C 348.664,339.341 349.997,335.341 351.5,331.5 Z"/></g>
<g><path style="opacity:0.584" fill="#5b5b5e" d="M 216.5,334.5 C 218.167,335.5 219.5,336.833 220.5,338.5C 218.167,338.167 216.833,336.833 216.5,334.5 Z"/></g>
<g><path style="opacity:0.184" fill="#3e3e40" d="M 147.5,333.5 C 149.074,335.102 149.741,337.102 149.5,339.5C 148.262,337.786 147.595,335.786 147.5,333.5 Z"/></g>
<g><path style="opacity:0.651" fill="#5e5e5e" d="M 338.5,333.5 C 338.88,335.698 338.213,337.365 336.5,338.5C 336.796,336.597 337.463,334.93 338.5,333.5 Z"/></g>
<g><path style="opacity:0.012" fill="#1d1d1d" d="M 202.5,336.5 C 203.906,336.973 204.573,337.973 204.5,339.5C 203.094,339.027 202.427,338.027 202.5,336.5 Z"/></g>
<g><path style="opacity:0.49" fill="#717271" d="M 283.5,333.5 C 282.167,336.833 279.833,339.167 276.5,340.5C 278.5,337.833 280.833,335.5 283.5,333.5 Z"/></g>
<g><path style="opacity:0.004" fill="#000000" d="M 133.5,338.5 C 134.833,339.167 134.833,339.167 133.5,338.5 Z"/></g>
<g><path style="opacity:0.043" fill="#2f3034" d="M 222.5,340.5 C 224.027,340.427 225.027,341.094 225.5,342.5C 223.973,342.573 222.973,341.906 222.5,340.5 Z"/></g>
<g><path style="opacity:0.427" fill="#4f5250" d="M 276.5,340.5 C 276.027,341.906 275.027,342.573 273.5,342.5C 273.973,341.094 274.973,340.427 276.5,340.5 Z"/></g>
<g><path style="opacity:0.071" fill="#29292d" d="M 298.5,338.5 C 298.771,340.38 298.104,341.713 296.5,342.5C 296.66,340.847 297.326,339.514 298.5,338.5 Z"/></g>
<g><path style="opacity:0.176" fill="#424245" d="M 149.5,339.5 C 150.931,340.78 151.598,342.447 151.5,344.5C 150.069,343.22 149.402,341.553 149.5,339.5 Z"/></g>
<g><path style="opacity:0.129" fill="#3f4041" d="M 165.5,340.5 C 166.906,340.973 167.573,341.973 167.5,343.5C 166.094,343.027 165.427,342.027 165.5,340.5 Z"/></g>
<g><path style="opacity:0.024" fill="#383838" d="M 206.5,341.5 C 209.5,343.833 212.167,346.5 214.5,349.5C 210.833,347.833 208.167,345.167 206.5,341.5 Z"/></g>
<g><path style="opacity:0.831" fill="#767676" d="M 336.5,339.5 C 336.843,341.483 336.176,342.817 334.5,343.5C 334.66,341.847 335.326,340.514 336.5,339.5 Z"/></g>
<g><path style="opacity:0.075" fill="#363738" d="M 225.5,342.5 C 227.027,342.427 228.027,343.094 228.5,344.5C 226.973,344.573 225.973,343.906 225.5,342.5 Z"/></g>
<g><path style="opacity:0.004" fill="#000000" d="M 12.5,344.5 C 13.8333,345.167 13.8333,345.167 12.5,344.5 Z"/></g>
<g><path style="opacity:0.067" fill="#1c2020" d="M 271.5,343.5 C 270.713,345.104 269.38,345.771 267.5,345.5C 268.514,344.326 269.847,343.66 271.5,343.5 Z"/></g>
<g><path style="opacity:0.141" fill="#3d3e3d" d="M 167.5,343.5 C 168.906,343.973 169.573,344.973 169.5,346.5C 168.094,346.027 167.427,345.027 167.5,343.5 Z"/></g>
<g><path style="opacity:0.518" fill="#515151" d="M 169.5,346.5 C 171.262,347.262 172.262,348.596 172.5,350.5C 170.738,349.738 169.738,348.404 169.5,346.5 Z"/></g>
<g><path style="opacity:0.004" fill="#000000" d="M 482.5,348.5 C 483.833,349.167 483.833,349.167 482.5,348.5 Z"/></g>
<g><path style="opacity:0.58" fill="#6d7271" d="M 214.5,349.5 C 216.027,349.427 217.027,350.094 217.5,351.5C 215.973,351.573 214.973,350.906 214.5,349.5 Z"/></g>
<g><path style="opacity:0.2" fill="#575858" d="M 235.5,347.5 C 241.448,348.602 247.448,349.269 253.5,349.5C 247.311,350.947 241.311,350.281 235.5,347.5 Z"/></g>
<g><path style="opacity:0.031" fill="#323332" d="M 153.5,349.5 C 154.674,350.514 155.34,351.847 155.5,353.5C 153.896,352.713 153.229,351.38 153.5,349.5 Z"/></g>
<g><path style="opacity:0.694" fill="#777777" d="M 172.5,350.5 C 173.833,351.167 174.833,352.167 175.5,353.5C 173.5,353.5 172.5,352.5 172.5,350.5 Z"/></g>
<g><path style="opacity:0.008" fill="#1f2121" d="M 217.5,351.5 C 218.5,351.833 219.167,352.5 219.5,353.5C 218.167,353.5 217.5,352.833 217.5,351.5 Z"/></g>
<g><path style="opacity:0.098" fill="#3f3f3f" d="M 331.5,350.5 C 331.573,352.027 330.906,353.027 329.5,353.5C 329.427,351.973 330.094,350.973 331.5,350.5 Z"/></g>
<g><path style="opacity:0.004" fill="#000000" d="M 483.5,352.5 C 484.833,353.167 484.833,353.167 483.5,352.5 Z"/></g>
<g><path style="opacity:0.047" fill="#262c2e" d="M 291.5,351.5 C 291.262,353.404 290.262,354.738 288.5,355.5C 288.738,353.596 289.738,352.262 291.5,351.5 Z"/></g>
<g><path style="opacity:0.051" fill="#2a2a2a" d="M 223.5,355.5 C 225.153,355.66 226.486,356.326 227.5,357.5C 225.62,357.771 224.287,357.104 223.5,355.5 Z"/></g>
<g><path style="opacity:0.698" fill="#727375" d="M 227.5,357.5 C 229.698,357.12 231.365,357.787 232.5,359.5C 230.597,359.204 228.93,358.537 227.5,357.5 Z"/></g>
<g><path style="opacity:0.008" fill="#262828" d="M 287.5,356.5 C 287.573,358.027 286.906,359.027 285.5,359.5C 285.5,358.833 285.5,358.167 285.5,357.5C 286.167,357.167 286.833,356.833 287.5,356.5 Z"/></g>
<g><path style="opacity:0.145" fill="#414141" d="M 328.5,355.5 C 328.573,357.027 327.906,358.027 326.5,358.5C 326.427,356.973 327.094,355.973 328.5,355.5 Z"/></g>
<g><path style="opacity:0.118" fill="#565656" d="M 266.5,360.5 C 267.052,358.391 268.386,357.558 270.5,358C 269.307,359.095 267.973,359.928 266.5,360.5 Z"/></g>
<g><path style="opacity:0.345" fill="#5f6061" d="M 179.5,357.5 C 181.23,358.026 182.564,359.026 183.5,360.5C 181.368,360.446 180.035,359.446 179.5,357.5 Z"/></g>
<g><path style="opacity:1" fill="#adafae" d="M 285.5,357.5 C 285.5,358.167 285.5,358.833 285.5,359.5C 284.167,361.5 282.5,363.167 280.5,364.5C 280.201,362.396 280.534,360.396 281.5,358.5C 282.167,358.833 282.833,359.167 283.5,359.5C 284.696,359.154 284.696,358.654 283.5,358C 284.094,357.536 284.761,357.369 285.5,357.5 Z"/></g>
<g><path style="opacity:0.004" fill="#000000" d="M 82.5,360.5 C 83.8333,361.167 83.8333,361.167 82.5,360.5 Z"/></g>
<g><path style="opacity:0.169" fill="#464647" d="M 232.5,359.5 C 235.495,359.294 238.162,359.96 240.5,361.5C 237.572,361.435 234.905,360.768 232.5,359.5 Z"/></g>
<g><path style="opacity:0.204" fill="#484848" d="M 326.5,358.5 C 326.573,360.027 325.906,361.027 324.5,361.5C 324.427,359.973 325.094,358.973 326.5,358.5 Z"/></g>
<g><path style="opacity:0.004" fill="#000000" d="M 120.5,361.5 C 121.833,362.167 121.833,362.167 120.5,361.5 Z"/></g>
<g><path style="opacity:0.671" fill="#5d5d5d" d="M 159.5,361.5 C 161.446,362.035 162.446,363.368 162.5,365.5C 161.026,364.564 160.026,363.23 159.5,361.5 Z"/></g>
<g><path style="opacity:0.071" fill="#1e1e1f" d="M 265.5,359.5 C 265.5,360.167 265.833,360.5 266.5,360.5C 265.101,361.89 263.434,362.89 261.5,363.5C 263.054,362.105 262.721,361.439 260.5,361.5C 254.018,362.772 247.685,362.772 241.5,361.5C 249.584,361.685 257.584,361.018 265.5,359.5 Z"/></g>
<g><path style="opacity:0.035" fill="#2b2c2b" d="M 340.5,359.5 C 340.573,361.027 339.906,362.027 338.5,362.5C 338.427,360.973 339.094,359.973 340.5,359.5 Z"/></g>
<g><path style="opacity:0.353" fill="#575857" d="M 183.5,360.5 C 185.23,361.026 186.564,362.026 187.5,363.5C 185.368,363.446 184.035,362.446 183.5,360.5 Z"/></g>
<g><path style="opacity:0.631" fill="#6a6b6c" d="M 324.5,361.5 C 324.262,363.404 323.262,364.738 321.5,365.5C 321.738,363.596 322.738,362.262 324.5,361.5 Z"/></g>
<g><path style="opacity:0.231" fill="#2d2d2d" d="M 261.5,363.5 C 261.027,364.906 260.027,365.573 258.5,365.5C 258.973,364.094 259.973,363.427 261.5,363.5 Z"/></g>
<g><path style="opacity:0.992" fill="#818382" d="M 279.5,365.5 C 278.738,367.262 277.404,368.262 275.5,368.5C 276.953,367.175 276.619,366.342 274.5,366C 276.134,365.506 277.801,365.34 279.5,365.5 Z"/></g>
<g><path style="opacity:0.02" fill="#2a2a2a" d="M 336.5,365.5 C 336.573,367.027 335.906,368.027 334.5,368.5C 334.427,366.973 335.094,365.973 336.5,365.5 Z"/></g>
<g><path style="opacity:0.106" fill="#383e3b" d="M 194.5,367.5 C 197.241,367.707 199.574,368.707 201.5,370.5C 198.759,370.293 196.426,369.293 194.5,367.5 Z"/></g>
<g><path style="opacity:0.086" fill="#393939" d="M 256.5,366.5 C 255.341,368.25 253.674,369.25 251.5,369.5C 252.401,367.273 254.067,366.273 256.5,366.5 Z"/></g>
<g><path style="opacity:0.012" fill="#343435" d="M 163.5,367.5 C 165.446,368.035 166.446,369.368 166.5,371.5C 165.026,370.564 164.026,369.23 163.5,367.5 Z"/></g>
<g><path style="opacity:0.004" fill="#000000" d="M 154.5,370.5 C 155.833,371.167 155.833,371.167 154.5,370.5 Z"/></g>
<g><path style="opacity:0.447" fill="#6e6e70" d="M 319.5,367.5 C 317.167,371.833 313.833,375.167 309.5,377.5C 312.5,373.833 315.833,370.5 319.5,367.5 Z"/></g>
<g><path style="opacity:0.02" fill="#29292b" d="M 333.5,369.5 C 333.573,371.027 332.906,372.027 331.5,372.5C 331.427,370.973 332.094,369.973 333.5,369.5 Z"/></g>
<g><path style="opacity:0.008" fill="#2d2e2e" d="M 204.5,371.5 C 207.428,371.565 210.095,372.232 212.5,373.5C 209.505,373.706 206.838,373.04 204.5,371.5 Z"/></g>
<g><path style="opacity:0.424" fill="#555754" d="M 250.5,369.5 C 247.992,371.554 244.992,372.554 241.5,372.5C 244.215,370.928 247.215,369.928 250.5,369.5 Z"/></g>
<g><path style="opacity:0.016" fill="#222323" d="M 273.5,370.5 C 273.027,371.906 272.027,372.573 270.5,372.5C 270.973,371.094 271.973,370.427 273.5,370.5 Z"/></g>
<g><path style="opacity:0.514" fill="#4a4b4a" d="M 241.5,372.5 C 238.456,374.011 235.122,374.678 231.5,374.5C 229.833,374.5 228.167,374.5 226.5,374.5C 231.32,373.513 236.32,372.847 241.5,372.5 Z"/></g>
<g><path style="opacity:0.324" fill="#797a7a" d="M 212.5,373.5 C 217.193,373.54 221.859,373.873 226.5,374.5C 228.167,374.5 229.833,374.5 231.5,374.5C 229.19,375.164 226.69,375.497 224,375.5C 219.888,375.651 216.054,374.984 212.5,373.5 Z"/></g>
<g><path style="opacity:0.102" fill="#363737" d="M 267.5,374.5 C 266.341,376.25 264.674,377.25 262.5,377.5C 263.659,375.75 265.326,374.75 267.5,374.5 Z"/></g>
<g><path style="opacity:0.027" fill="#3f3f40" d="M 170.5,375.5 C 172.914,376.911 174.581,378.911 175.5,381.5C 173.086,380.089 171.419,378.089 170.5,375.5 Z"/></g>
<g><path style="opacity:0.004" fill="#2a2a2a" d="M 328.5,375.5 C 328.573,377.027 327.906,378.027 326.5,378.5C 326.427,376.973 327.094,375.973 328.5,375.5 Z"/></g>
<g><path style="opacity:0.271" fill="#4c4e4c" d="M 309.5,377.5 C 308.738,379.262 307.404,380.262 305.5,380.5C 306.262,378.738 307.596,377.738 309.5,377.5 Z"/></g>
<g><path style="opacity:0.145" fill="#4a4a4a" d="M 195.5,382.5 C 191.232,380.685 190.899,380.018 194.5,380.5C 195.298,380.957 195.631,381.624 195.5,382.5 Z"/></g>
<g><path style="opacity:0.082" fill="#2f3333" d="M 258.5,379.5 C 257.22,380.931 255.553,381.598 253.5,381.5C 254.78,380.069 256.447,379.402 258.5,379.5 Z"/></g>
<g><path style="opacity:0.004" fill="#000000" d="M 392.5,380.5 C 393.833,381.167 393.833,381.167 392.5,380.5 Z"/></g>
<g><path style="opacity:0.318" fill="#454646" d="M 175.5,381.5 C 177.749,382.08 179.415,383.413 180.5,385.5C 178.251,384.92 176.585,383.587 175.5,381.5 Z"/></g>
<g><path style="opacity:0.247" fill="#48504f" d="M 305.5,380.5 C 304.738,382.262 303.404,383.262 301.5,383.5C 302.262,381.738 303.596,380.738 305.5,380.5 Z"/></g>
<g><path style="opacity:0.012" fill="#1c1c1c" d="M 198.5,382.5 C 199.609,382.557 200.609,382.89 201.5,383.5C 201.167,384.167 200.833,384.833 200.5,385.5C 198.973,385.573 197.973,384.906 197.5,383.5C 198.167,383.5 198.5,383.167 198.5,382.5 Z"/></g>
<g><path style="opacity:0.353" fill="#444444" d="M 202.5,383.5 C 203.791,383.263 204.791,383.596 205.5,384.5C 204.391,384.557 203.391,384.89 202.5,385.5C 202.5,384.833 202.5,384.167 202.5,383.5 Z"/></g>
<g><path style="opacity:0.004" fill="#000000" d="M 118.5,384.5 C 119.833,385.167 119.833,385.167 118.5,384.5 Z"/></g>
<g><path style="opacity:0.22" fill="#494949" d="M 205.5,384.5 C 207.735,384.205 209.735,384.539 211.5,385.5C 209.444,386.161 207.444,385.828 205.5,384.5 Z"/></g>
<g><path style="opacity:0.051" fill="#303032" d="M 253.5,381.5 C 249.266,383.955 244.6,385.289 239.5,385.5C 243.954,383.801 248.62,382.467 253.5,381.5 Z"/></g>
<g><path style="opacity:0.757" fill="#777878" d="M 180.5,385.5 C 182.749,386.08 184.415,387.413 185.5,389.5C 183.251,388.92 181.585,387.587 180.5,385.5 Z"/></g>
<g><path style="opacity:0.282" fill="#363a3a" d="M 299.5,384.5 C 299.027,385.906 298.027,386.573 296.5,386.5C 296.973,385.094 297.973,384.427 299.5,384.5 Z"/></g>
<g><path style="opacity:0.475" fill="#545555" d="M 296.5,386.5 C 296.027,387.906 295.027,388.573 293.5,388.5C 293.973,387.094 294.973,386.427 296.5,386.5 Z"/></g>
<g><path style="opacity:0.082" fill="#242424" d="M 204.5,387.5 C 206.027,387.427 207.027,388.094 207.5,389.5C 205.973,389.573 204.973,388.906 204.5,387.5 Z"/></g>
<g><path style="opacity:0.008" fill="#2a2a2a" d="M 209.5,390.5 C 213.327,390.752 216.66,392.085 219.5,394.5C 215.703,394.128 212.37,392.794 209.5,390.5 Z"/></g>
<g><path style="opacity:0.004" fill="#000000" d="M 495.5,390.5 C 496.833,391.167 496.833,391.167 495.5,390.5 Z"/></g>
<g><path style="opacity:0.133" fill="#3e3e3e" d="M 187.5,391.5 C 189.027,391.427 190.027,392.094 190.5,393.5C 188.973,393.573 187.973,392.906 187.5,391.5 Z"/></g>
<g><path style="opacity:0.639" fill="#5e6060" d="M 286.5,391.5 C 285.365,393.213 283.698,393.88 281.5,393.5C 282.93,392.463 284.597,391.796 286.5,391.5 Z"/></g>
<g><path style="opacity:0.008" fill="#1c1c1c" d="M 311.5,391.5 C 311.027,392.906 310.027,393.573 308.5,393.5C 308.973,392.094 309.973,391.427 311.5,391.5 Z"/></g>
<g><path style="opacity:0.133" fill="#393a39" d="M 190.5,393.5 C 192.027,393.427 193.027,394.094 193.5,395.5C 191.973,395.573 190.973,394.906 190.5,393.5 Z"/></g>
<g><path style="opacity:0.016" fill="#222323" d="M 308.5,393.5 C 308.027,394.906 307.027,395.573 305.5,395.5C 305.973,394.094 306.973,393.427 308.5,393.5 Z"/></g>
<g><path style="opacity:0.333" fill="#5a5a5a" d="M 219.5,394.5 C 225.02,395.547 230.354,396.88 235.5,398.5C 229.744,398.394 224.411,397.061 219.5,394.5 Z"/></g>
<g><path style="opacity:0.729" fill="#6c6c6c" d="M 281.5,393.5 C 279.044,395.868 276.044,396.868 272.5,396.5C 275.215,394.928 278.215,393.928 281.5,393.5 Z"/></g>
<g><path style="opacity:0.125" fill="#434343" d="M 195.5,396.5 C 197.027,396.427 198.027,397.094 198.5,398.5C 196.973,398.573 195.973,397.906 195.5,396.5 Z"/></g>
<g><path style="opacity:0.835" fill="#747477" d="M 272.5,396.5 C 272.082,397.222 271.416,397.722 270.5,398C 267.518,398.498 264.518,398.665 261.5,398.5C 264.974,397.475 268.64,396.808 272.5,396.5 Z"/></g>
<g><path style="opacity:0.827" fill="#818282" d="M 204.5,401.5 C 206.483,401.157 207.817,401.824 208.5,403.5C 206.847,403.34 205.514,402.674 204.5,401.5 Z"/></g>
<g><path style="opacity:0.851" fill="#747575" d="M 209.5,403.5 C 216.034,405.124 222.367,407.124 228.5,409.5C 221.699,408.676 215.365,406.676 209.5,403.5 Z"/></g>
<g><path style="opacity:0.004" fill="#000000" d="M 30.5,407.5 C 31.8333,408.167 31.8333,408.167 30.5,407.5 Z"/></g>
<g><path style="opacity:0.031" fill="#333433" d="M 281.5,406.5 C 279.485,407.924 277.152,408.59 274.5,408.5C 276.515,407.076 278.848,406.41 281.5,406.5 Z"/></g>
<g><path style="opacity:0.004" fill="#000000" d="M 418.5,409.5 C 419.833,410.167 419.833,410.167 418.5,409.5 Z"/></g>
<g><path style="opacity:0.004" fill="#000000" d="M 157.5,419.5 C 158.833,420.167 158.833,420.167 157.5,419.5 Z"/></g>
<g><path style="opacity:0.004" fill="#000000" d="M 365.5,422.5 C 366.833,423.167 366.833,423.167 365.5,422.5 Z"/></g>
<g><path style="opacity:0.004" fill="#000000" d="M 392.5,424.5 C 393.833,425.167 393.833,425.167 392.5,424.5 Z"/></g>
<g><path style="opacity:0.004" fill="#000000" d="M 491.5,425.5 C 492.833,426.167 492.833,426.167 491.5,425.5 Z"/></g>
<g><path style="opacity:0.004" fill="#000000" d="M 360.5,436.5 C 361.833,437.167 361.833,437.167 360.5,436.5 Z"/></g>
<g><path style="opacity:0.004" fill="#000000" d="M 28.5,439.5 C 29.8333,440.167 29.8333,440.167 28.5,439.5 Z"/></g>
<g><path style="opacity:0.004" fill="#000000" d="M 16.5,448.5 C 17.8333,449.167 17.8333,449.167 16.5,448.5 Z"/></g>
<g><path style="opacity:0.004" fill="#000000" d="M 357.5,450.5 C 358.833,451.167 358.833,451.167 357.5,450.5 Z"/></g>
<g><path style="opacity:0.004" fill="#000000" d="M 163.5,453.5 C 164.833,454.167 164.833,454.167 163.5,453.5 Z"/></g>
<g><path style="opacity:0.004" fill="#000000" d="M 428.5,453.5 C 429.833,454.167 429.833,454.167 428.5,453.5 Z"/></g>
<g><path style="opacity:0.004" fill="#000000" d="M 78.5,459.5 C 79.8333,460.167 79.8333,460.167 78.5,459.5 Z"/></g>
<g><path style="opacity:0.004" fill="#000000" d="M 485.5,460.5 C 486.833,461.167 486.833,461.167 485.5,460.5 Z"/></g>
<g><path style="opacity:0.004" fill="#000000" d="M 392.5,470.5 C 393.833,471.167 393.833,471.167 392.5,470.5 Z"/></g>
<g><path style="opacity:0.004" fill="#000000" d="M 414.5,476.5 C 415.833,477.167 415.833,477.167 414.5,476.5 Z"/></g>
<g><path style="opacity:0.004" fill="#000000" d="M 130.5,477.5 C 131.833,478.167 131.833,478.167 130.5,477.5 Z"/></g>
<g><path style="opacity:0.004" fill="#000000" d="M 215.5,483.5 C 216.833,484.167 216.833,484.167 215.5,483.5 Z"/></g>
</svg>
